<?xml version="1.0" ?><svg id="Layer_1" style="enable-background:new 0 0 128 128;" version="1.1" viewBox="0 0 128 128" xml:space="preserve" xmlns="http://www.w3.org/2000/svg" xmlns:xlink="http://www.w3.org/1999/xlink"><style type="text/css">
	.st0{fill:#382673;}
	.st1{fill:#473080;}
	.st2{fill:#007BC6;}
	.st3{fill:#D44A90;}
	.st4{fill:#A72973;}
	.st5{fill:#F15A9E;}
	.st6{opacity:0.4;fill:#0CAFE8;}
	.st7{opacity:0.5;fill:#382673;}
	.st8{fill:#0CAFE8;}
	.st9{fill:#0B90D3;}
	.st10{opacity:0.3;fill:none;stroke:#FFFFFF;stroke-width:2;stroke-linecap:round;stroke-linejoin:round;stroke-miterlimit:10;}
	.st11{fill:#8F58B2;}
	.st12{fill:#6E4CA0;}
	.st13{fill:#F375AD;}
	.st14{fill:#FFDE39;}
	.st15{fill:#FEC632;}
	.st16{fill:#F9A74E;}
	.st17{fill:#DA6A2D;}
	.st18{fill:#9EDD9A;}
	.st19{fill:#00C2A9;}
	.st20{fill:#00A58C;}
	.st21{fill:#037C68;}
	.st22{fill:#9AC0DB;}
	.st23{fill:#FFFFFF;}
	.st24{opacity:0.2;fill:#382673;}
	.st25{opacity:0.4;fill:#473080;}
	.st26{opacity:0.1;fill:#382673;}
	.st27{fill:none;stroke:#FFDE39;stroke-width:10;stroke-linecap:round;stroke-linejoin:round;stroke-miterlimit:10;}
	.st28{fill:none;stroke:#F9A74E;stroke-width:4;stroke-linecap:round;stroke-linejoin:round;stroke-miterlimit:10;}
	.st29{fill:none;stroke:#FEC632;stroke-width:4;stroke-linecap:round;stroke-linejoin:round;stroke-miterlimit:10;}
	.st30{fill:none;stroke:#00A58C;stroke-width:2;stroke-linecap:round;stroke-linejoin:round;stroke-miterlimit:10;}
	.st31{fill:none;stroke:#D44A90;stroke-width:3;stroke-linecap:round;stroke-linejoin:round;stroke-miterlimit:10;}
	.st32{fill:none;stroke:#007BC6;stroke-width:2.2439;stroke-miterlimit:10;}
	.st33{fill:none;stroke:#F15A9E;stroke-width:3;stroke-linecap:round;stroke-miterlimit:10;}
	.st34{opacity:0.2;fill:none;stroke:#382673;stroke-width:2;stroke-linecap:round;stroke-linejoin:round;stroke-miterlimit:10;}
	.st35{fill:none;stroke:#F15A9E;stroke-width:2;stroke-linecap:round;stroke-miterlimit:10;}
	.st36{fill:none;stroke:#F9A74E;stroke-width:2;stroke-linecap:round;stroke-linejoin:round;stroke-miterlimit:10;}
	.st37{fill:none;stroke:#FFFFFF;stroke-width:2;stroke-linecap:round;stroke-miterlimit:10;}
	.st38{opacity:0.4;fill:#382673;}
</style><circle class="st0" cx="64" cy="64" r="60"/><circle class="st1" cx="64" cy="64" r="50"/><g><ellipse class="st32" cx="48.7" cy="25.9" rx="11.5" ry="11.5" transform="matrix(0.9397 -0.342 0.342 0.9397 -5.9073 18.2022)"/><rect class="st9" height="17" transform="matrix(0.9397 -0.342 0.342 0.9397 -9.2157 20.1123)" width="8" x="48.4" y="27.7"/><rect class="st2" height="17" transform="matrix(0.9397 -0.342 0.342 0.9397 -8.6079 21.165)" width="1" x="55.2" y="26.5"/><rect class="st2" height="7" transform="matrix(0.9397 -0.342 0.342 0.9397 -7.7119 19.2441)" width="8" x="46.7" y="28"/><rect class="st9" height="13.5" transform="matrix(0.9063 0.4226 -0.4226 0.9063 24.7698 -30.8982)" width="6" x="79.1" y="33.7"/><path class="st8" d="M88,38.1l-8-3.7l0.7-1.4c0.5-1,1.7-1.4,2.7-1l4.4,2c1,0.5,1.4,1.7,1,2.7L88,38.1z"/><rect class="st9" height="13.5" transform="matrix(-0.4226 0.9063 -0.9063 -0.4226 99.1383 53.8098)" width="6" x="29.4" y="51.8"/><path class="st8" d="M26.4,60.5l3.7-8l-1.4-0.7c-1-0.5-2.2,0-2.7,1l-2,4.4c-0.5,1,0,2.2,1,2.7L26.4,60.5z"/><ellipse class="st8" cx="66.3" cy="74.2" rx="38" ry="38" transform="matrix(0.9397 -0.342 0.342 0.9397 -21.3968 27.1451)"/><path class="st9" d="M91.5,45.8c3.8,3.8,6.9,8.5,8.8,13.9c7.2,19.7-3,41.5-22.7,48.7c-13.6,4.9-28.1,1.7-38.2-7.3   c10.1,10.1,25.5,14,39.9,8.8c19.7-7.2,29.9-29,22.7-48.7C99.7,55.1,96.1,49.9,91.5,45.8z"/><ellipse class="st23" cx="66.3" cy="74.2" rx="30" ry="30" transform="matrix(0.9397 -0.342 0.342 0.9397 -21.3968 27.1451)"/><path class="st24" d="M39.7,86C34,70.5,42.1,53.3,57.6,47.6c10.6-3.9,22.1-1.3,30,5.6c-8-8.1-20.3-11.3-31.7-7.2   c-15.6,5.7-23.6,22.9-17.9,38.5c1.8,4.9,4.7,9.1,8.4,12.3C43.6,93.8,41.2,90.2,39.7,86z"/><ellipse class="st24" cx="66.3" cy="74.2" rx="8" ry="8" transform="matrix(0.9397 -0.342 0.342 0.9397 -21.3968 27.1451)"/><path class="st14" d="M57.4,49.8l3.1,8.5c8.8-3.2,18.6,1.3,21.8,10.2l8.5-3.1C85.8,51.9,70.9,44.9,57.4,49.8z"/><path class="st15" d="M57.4,49.8l3.1,8.5c4.4-1.6,9.1-1.3,13,0.6l3.8-8.2C71.2,47.9,64.1,47.4,57.4,49.8z"/><line class="st33" x1="58.8" x2="90.7" y1="77" y2="65.4"/><ellipse class="st3" cx="66.3" cy="74.2" rx="4" ry="4" transform="matrix(0.9397 -0.342 0.342 0.9397 -21.3968 27.1451)"/><path class="st8" d="M56.9,30.8L45.6,35l-2.4-6.6c-0.6-1.6,0.2-3.3,1.8-3.8l5.6-2.1c1.6-0.6,3.3,0.2,3.8,1.8L56.9,30.8z"/><path class="st9" d="M50.6,22.5l-2.8,1c1.6-0.6,3.3,0.2,3.8,1.8l2.4,6.6l2.8-1l-2.4-6.6C53.9,22.7,52.2,21.9,50.6,22.5z"/><line class="st34" x1="74.5" x2="72.8" y1="96.8" y2="92.1"/><line class="st34" x1="56.1" x2="58.2" y1="96" y2="91.5"/><line class="st34" x1="43.7" x2="48.4" y1="82.5" y2="80.7"/><line class="st34" x1="83.5" x2="88" y1="82.3" y2="84.4"/><line class="st34" x1="44.5" x2="49.1" y1="64.1" y2="66.2"/></g><line class="st35" x1="87.7" x2="89.8" y1="29" y2="24.5"/><line class="st35" x1="82.9" x2="84.1" y1="26.8" y2="24.2"/><line class="st35" x1="92.5" x2="93.7" y1="31.3" y2="28.7"/></svg>