<svg id="b3610dfe-b8fa-4701-9393-2c36a069038b" data-name="Layer 1" xmlns="http://www.w3.org/2000/svg" width="775.54496" height="674.79236" viewBox="0 0 775.54496 674.79236"><ellipse cx="671.87863" cy="666.88561" rx="103.66633" ry="7.90675" fill="#e6e6e6"/><path d="M924.27505,553.12484,914.25,581.08954a9.76236,9.76236,0,0,0,4.12995,11.64324h0a9.76236,9.76236,0,0,0,14.76113-7.2594l3.18161-28.33267L960.418,477.49244l-20.74871-10.0397Z" transform="translate(-212.22752 -112.60382)" fill="#a0616a"/><polygon points="703.681 651.689 718.406 651.689 718.406 508.456 684.94 507.787 703.681 651.689" fill="#a0616a"/><polygon points="638.088 651.689 652.813 651.689 652.813 508.456 619.348 507.787 638.088 651.689" fill="#a0616a"/><path d="M932.97613,636.1197l-38.15086-4.01588-8.03176-42.16674-14.7249,42.83605-45.5133-4.68519,18.74077-70.94722c34.25705-23.27818,66.79346-22.76913,97.71975,0Z" transform="translate(-212.22752 -112.60382)" fill="#2f2e41"/><path d="M868.29259,770.39328a11.95753,11.95753,0,0,1-13.47221,13.33221l-27.12649-3.679a9.27072,9.27072,0,0,1-7.73335-10.5695v0a9.2707,9.2707,0,0,1,9.16291-7.861H833.596l14.71508-13.40708c.1451,9.13206,6.87039,7.10423,17.98509,6.213Z" transform="translate(-212.22752 -112.60382)" fill="#2f2e41"/><path d="M933.8853,770.39328a11.95753,11.95753,0,0,1-13.47221,13.33221l-27.1265-3.679a9.2707,9.2707,0,0,1-7.73334-10.5695v0a9.27071,9.27071,0,0,1,9.16291-7.861h4.47255l14.71507-13.40708c.1451,9.13206,6.87039,7.10423,17.9851,6.213Z" transform="translate(-212.22752 -112.60382)" fill="#2f2e41"/><circle cx="669.37881" cy="256.29254" r="23.59329" fill="#a0616a"/><polygon points="699.331 295.949 669.881 298.627 669.881 272.523 685.275 263.153 699.331 295.949" fill="#a0616a"/><path d="M946.36239,567.18042c-29.62732-21.69481-65.20232-19.49042-104.41288-2.67725,17.76524-50.29176,25.33252-97.16236,11.37833-136.81287a31.54561,31.54561,0,0,1,23.72756-30.56148l5.05291-1.29261,24.7646,1.33863,23.25466,13.632a31.65783,31.65783,0,0,1,15.64752,27.16726Z" transform="translate(-212.22752 -112.60382)" fill="#e6e6e6"/><path d="M831.90982,547.77034,821.88474,575.735a9.76236,9.76236,0,0,0,4.13,11.64324h0a9.76237,9.76237,0,0,0,14.76114-7.2594l3.1816-28.33266,24.09528-79.64829L847.304,462.09823Z" transform="translate(-212.22752 -112.60382)" fill="#a0616a"/><path d="M965.77248,492.88665H932.97613v-80.3176h0A45.24572,45.24572,0,0,1,955.287,442.84237Z" transform="translate(-212.22752 -112.60382)" fill="#e6e6e6"/><path d="M863.61838,356.122a9.60648,9.60648,0,0,1-9.11893-.49342,7.26935,7.26935,0,0,1-2.89955-8.33307c.99479-2.55779,3.51208-4.15948,5.95457-5.41088a60.10275,60.10275,0,0,1,17.12643-5.7211c2.84362-.492,5.85491-.76251,8.54258.28859,1.32985.52009,2.52231,1.34386,3.84231,1.8884,2.42716,1.00127,5.13481,1.00564,7.70357,1.54878a18.79677,18.79677,0,0,1,12.487,9.35563,22.64874,22.64874,0,0,1,1.93281,5.07356,29.19577,29.19577,0,0,1-.047,14.69414c-2.02023,7.62607-7.16207,14.633-6.6993,22.50855-3.80167-2.21379-5.58246-6.721-8.757-9.76672a14.41072,14.41072,0,0,0-8.66126-3.923,4.581,4.581,0,0,1-2.52888-.6439,3.94665,3.94665,0,0,1-1.1-1.98867L877.81931,363.997c-.72784-2.27975-1.60692-4.75666-3.664-5.97949a9.21924,9.21924,0,0,0-4.0912-.9942,62.29294,62.29294,0,0,0-10.21473.096" transform="translate(-212.22752 -112.60382)" fill="#2f2e41"/><path d="M871.3993,478.16175l-38.15086-14.72489,17.32563-46.68293a30.13619,30.13619,0,0,1,26.17972-19.57909h0Z" transform="translate(-212.22752 -112.60382)" fill="#e6e6e6"/><path d="M666.15327,612.38417h-419a7.5082,7.5082,0,0,1-7.5-7.5v-457a7.5082,7.5082,0,0,1,7.5-7.5h419a7.5082,7.5082,0,0,1,7.5,7.5v457A7.5082,7.5082,0,0,1,666.15327,612.38417Zm-419-469a4.50493,4.50493,0,0,0-4.5,4.5v457a4.50492,4.50492,0,0,0,4.5,4.5h419a4.50491,4.50491,0,0,0,4.5-4.5v-457a4.50492,4.50492,0,0,0-4.5-4.5Z" transform="translate(-212.22752 -112.60382)" fill="#e6e6e6"/><circle cx="121.38798" cy="188.2833" r="9.84302" fill="#e6e6e6"/><circle cx="162.40057" cy="188.2833" r="9.84302" fill="#e6e6e6"/><circle cx="203.41316" cy="188.2833" r="9.84302" fill="#f96d00"/><circle cx="244.42575" cy="188.2833" r="9.84302" fill="#f96d00"/><circle cx="285.43835" cy="188.2833" r="9.84302" fill="#f96d00"/><circle cx="326.45094" cy="188.2833" r="9.84302" fill="#e6e6e6"/><circle cx="367.46353" cy="188.2833" r="9.84302" fill="#e6e6e6"/><circle cx="121.38798" cy="219.45287" r="9.84302" fill="#e6e6e6"/><circle cx="162.40057" cy="219.45287" r="9.84302" fill="#e6e6e6"/><circle cx="203.41316" cy="219.45287" r="9.84302" fill="#e6e6e6"/><circle cx="244.42575" cy="219.45287" r="9.84302" fill="#e6e6e6"/><circle cx="285.43835" cy="219.45287" r="9.84302" fill="#e6e6e6"/><circle cx="326.45094" cy="219.45287" r="9.84302" fill="#e6e6e6"/><circle cx="367.46353" cy="219.45287" r="9.84302" fill="#e6e6e6"/><circle cx="121.38798" cy="250.62243" r="9.84302" fill="#f96d00"/><circle cx="162.40057" cy="250.62243" r="9.84302" fill="#f96d00"/><circle cx="203.41316" cy="250.62243" r="9.84302" fill="#f96d00"/><circle cx="244.42575" cy="250.62243" r="9.84302" fill="#e6e6e6"/><circle cx="285.43835" cy="250.62243" r="9.84302" fill="#e6e6e6"/><circle cx="326.45094" cy="250.62243" r="9.84302" fill="#e6e6e6"/><circle cx="367.46353" cy="250.62243" r="9.84302" fill="#e6e6e6"/><circle cx="121.38798" cy="281.792" r="9.84302" fill="#e6e6e6"/><circle cx="162.40057" cy="281.792" r="9.84302" fill="#e6e6e6"/><circle cx="121.38798" cy="312.96157" r="9.84302" fill="#e6e6e6"/><circle cx="162.40057" cy="312.96157" r="9.84302" fill="#e6e6e6"/><circle cx="203.41316" cy="312.96157" r="9.84302" fill="#e6e6e6"/><circle cx="203.41316" cy="281.792" r="9.84302" fill="#e6e6e6"/><circle cx="244.42575" cy="281.792" r="9.84302" fill="#f96d00"/><circle cx="285.43835" cy="281.792" r="9.84302" fill="#f96d00"/><circle cx="326.45094" cy="281.792" r="9.84302" fill="#f96d00"/><circle cx="367.46353" cy="281.792" r="9.84302" fill="#e6e6e6"/><path id="a332a05d-d774-4fd2-8531-ab97682a63e9" data-name="Path 40" d="M382.14194,213.88252a5.94683,5.94683,0,0,0,0,11.89205H531.22766a5.94683,5.94683,0,1,0,.19525-11.89205q-.09762-.00167-.19525,0Z" transform="translate(-212.22752 -112.60382)" fill="#3f3d56"/><path d="M565.03665,212.22687a1.17,1.17,0,0,0,0,1.65472l5.02282,5.02287H557.67366a1.17006,1.17006,0,0,0,0,2.34012h12.38581l-5.02282,5.02287a1.17,1.17,0,1,0,1.65467,1.65472l7.0203-7.02029a1.1701,1.1701,0,0,0,0-1.65472l-7.0203-7.02029A1.17,1.17,0,0,0,565.03665,212.22687Z" transform="translate(-212.22752 -112.60382)" fill="#e6e6e6"/><path d="M348.2699,212.22687a1.17,1.17,0,0,1,0,1.65472l-5.02282,5.02287h12.38581a1.17006,1.17006,0,1,1,0,2.34012H343.24708l5.02282,5.02287a1.17,1.17,0,0,1-1.65468,1.65472l-7.02029-7.02029a1.1701,1.1701,0,0,1,0-1.65472l7.02029-7.02029A1.17,1.17,0,0,1,348.2699,212.22687Z" transform="translate(-212.22752 -112.60382)" fill="#e6e6e6"/><path d="M373.80784,498.23108a21.32655,21.32655,0,1,0,0,42.65309H539.49871a21.32655,21.32655,0,1,0,0-42.65309Z" transform="translate(-212.22752 -112.60382)" fill="#e6e6e6"/><path d="M246.5,181.14878a34.27248,34.27248,0,1,1,34.27248-34.27248A34.31124,34.31124,0,0,1,246.5,181.14878Z" transform="translate(-212.22752 -112.60382)" fill="#f96d00"/><path d="M260.023,143.49559H249.88081V133.35326a3.38081,3.38081,0,1,0-6.76162,0v10.14233H232.97686a3.38076,3.38076,0,0,0,0,6.76152h10.14233v10.14232a3.38081,3.38081,0,0,0,6.76162,0V150.25711H260.023a3.38076,3.38076,0,1,0,0-6.76152Z" transform="translate(-212.22752 -112.60382)" fill="#fff"/></svg>