<?xml version="1.0" ?><svg viewBox="0 0 64 64" xmlns="http://www.w3.org/2000/svg"><g data-name="02-Zombie" id="_02-Zombie"><path d="M46.99,56.01,45,58l-1-1-2-2,1.76-1.76a1.761,1.761,0,0,0,2.23-.22,1.775,1.775,0,0,0,0,2.49A1.739,1.739,0,0,0,46.99,56.01Z" style="fill:#00a0aa"/><path d="M22,55l-2,2-1,1-1.99-1.99a1.739,1.739,0,0,0,1-.5,1.775,1.775,0,0,0,0-2.49,1.761,1.761,0,0,0,2.23.22Z" style="fill:#00a0aa"/><path d="M50.98,58.01a1.764,1.764,0,0,1-2.49-2.5,1.768,1.768,0,0,1-2.5,0,1.775,1.775,0,0,1,0-2.49,1.761,1.761,0,0,1-2.23.22,1.922,1.922,0,0,1-.45-.45,1.829,1.829,0,0,1,.26-2.33l2.42-2.43a3.543,3.543,0,0,1,4.99,0l4.99,4.99a3.543,3.543,0,0,1,0,4.99l-2.43,2.42a1.92,1.92,0,0,1-1.54.56,1.668,1.668,0,0,1-.79-.3A1.756,1.756,0,0,1,50.98,58.01Z" style="fill:#64e1dc"/><path d="M13.02,58.01a1.756,1.756,0,0,1-.23,2.68,1.668,1.668,0,0,1-.79.3,1.92,1.92,0,0,1-1.54-.56L8.03,58.01a3.543,3.543,0,0,1,0-4.99l4.99-4.99a3.543,3.543,0,0,1,4.99,0l2.42,2.43a1.829,1.829,0,0,1,.26,2.33,1.922,1.922,0,0,1-.45.45,1.761,1.761,0,0,1-2.23-.22,1.775,1.775,0,0,1,0,2.49,1.768,1.768,0,0,1-2.5,0,1.764,1.764,0,1,1-2.49,2.5Z" style="fill:#64e1dc"/><path d="M52,61v2H44V57l1,1,1.99-1.99a1.751,1.751,0,0,0,1.5-.5,1.764,1.764,0,0,0,2.49,2.5,1.756,1.756,0,0,0,.23,2.68,1.668,1.668,0,0,0,.79.3Z" style="fill:#a260e5"/><path d="M20,57v6H12V60.99a1.668,1.668,0,0,0,.79-.3,1.756,1.756,0,0,0,.23-2.68,1.764,1.764,0,1,0,2.49-2.5,1.751,1.751,0,0,0,1.5.5L19,58Z" style="fill:#a260e5"/><path d="M51,46v2l-.02.03a3.543,3.543,0,0,0-4.99,0l-2.42,2.43a1.829,1.829,0,0,0-.26,2.33,1.922,1.922,0,0,0,.45.45L42,55l2,2v6H38V34h1a12,12,0,0,1,4.34.81,11.723,11.723,0,0,1,3.56,2.15A12,12,0,0,1,51,46Z" style="fill:#b674f2"/><path d="M46.9,36.96a11.723,11.723,0,0,0-3.56-2.15A12,12,0,0,0,39,34H38v4h1a12,12,0,0,1,4.34.81,11.723,11.723,0,0,1,3.56,2.15,12.009,12.009,0,0,1,3.9,6.921c.06.052.127.092.184.149L51,48V46A12,12,0,0,0,46.9,36.96Z" style="fill:#c78ff5"/><path d="M26,55v8H20V57l2-2-1.76-1.76a1.922,1.922,0,0,0,.45-.45,1.829,1.829,0,0,0-.26-2.33l-2.42-2.43a3.543,3.543,0,0,0-4.99,0L13,48V46a12,12,0,0,1,4.1-9.04,11.723,11.723,0,0,1,3.56-2.15A12,12,0,0,1,25,34h1Z" style="fill:#b674f2"/><path d="M26,55V34h3a3,3,0,0,0,6,0h3V63H26Z" style="fill:#ffa426"/><path d="M35,34a3,3,0,0,1-6,0H26v4h3a3,3,0,0,0,6,0h3V34Z" style="fill:#ffda45"/><path d="M52.41,31.44a2.019,2.019,0,0,1-2.85,2.86L46.9,36.96a11.723,11.723,0,0,0-3.56-2.15l3.36-3.37a2.019,2.019,0,1,1,2.86,0A2.028,2.028,0,0,1,52.41,31.44Z" style="fill:#ffa426"/><path d="M46,10a15.48,15.48,0,0,1-.93,5.84A2.942,2.942,0,0,0,43,15l-.05.01a4,4,0,0,0-3.18-3.28C36,10.99,36,9,36,9c0,2.01-6.74,2.67-11.18,2.89a4,4,0,0,0-3.72,3.13L21,15a2.942,2.942,0,0,0-2.07.84A15.48,15.48,0,0,1,18,10c0-4,0-9,9-9H37C46,1,46,6,46,10Z" style="fill:#ffa426"/><path d="M27,4H37c7.687,0,8.805,3.647,8.968,7.2.02-.379.032-.78.032-1.2,0-4,0-9-9-9H27c-9,0-9,5-9,9,0,.424.012.825.032,1.2C18.2,7.647,19.313,4,27,4Z" style="fill:#ffda45"/><path d="M45.07,15.84A2.992,2.992,0,0,1,43,21V15.65a4.482,4.482,0,0,0-.05-.64L43,15A2.942,2.942,0,0,1,45.07,15.84Z" style="fill:#00a0aa"/><path d="M35,31.58a10.924,10.924,0,0,1-6,0A10.981,10.981,0,0,1,21,21V15.89a3.572,3.572,0,0,1,.1-.87,4,4,0,0,1,3.72-3.13C29.26,11.67,36,11.01,36,9c0,0,0,1.99,3.77,2.73a4,4,0,0,1,3.18,3.28,4.482,4.482,0,0,1,.05.64V21A10.985,10.985,0,0,1,35,31.58ZM28,27h8a4,4,0,0,0-8,0Z" style="fill:#64e1dc"/><path d="M42.95,15.01a4,4,0,0,0-3.18-3.28C36,10.99,36,9,36,9c0,2.01-6.74,2.67-11.18,2.89a4,4,0,0,0-3.72,3.13,3.572,3.572,0,0,0-.1.87v3a3.572,3.572,0,0,1,.1-.87,4,4,0,0,1,3.72-3.13C29.26,14.67,36,14.01,36,12c0,0,0,1.99,3.77,2.73a4,4,0,0,1,3.18,3.28,4.482,4.482,0,0,1,.05.64v-3A4.482,4.482,0,0,0,42.95,15.01Z" style="fill:#00c8c8"/><path d="M36,27H28a4,4,0,0,1,8,0Z" style="fill:#ff7045"/><path d="M32,25a3.982,3.982,0,0,1,3.446,2H36a4,4,0,0,0-8,0h.554A3.982,3.982,0,0,1,32,25Z" style="fill:#f05e3a"/><path d="M35,31.58V34a3,3,0,0,1-6,0V31.58a10.924,10.924,0,0,0,6,0Z" style="fill:#00a0aa"/><path d="M18.93,15.84A2.942,2.942,0,0,1,21,15l.1.02a3.572,3.572,0,0,0-.1.87V21a2.992,2.992,0,0,1-2.07-5.16Z" style="fill:#00a0aa"/><path d="M17.3,31.44l3.36,3.37a11.723,11.723,0,0,0-3.56,2.15L14.44,34.3a2.019,2.019,0,1,1,0-2.86,2.019,2.019,0,1,1,2.86,0Z" style="fill:#ffa426"/><path d="M17.1,36.96a11.723,11.723,0,0,1,3.56-2.15A12,12,0,0,1,25,34h1v4H25a12,12,0,0,0-4.34.81,11.723,11.723,0,0,0-3.56,2.15,12.009,12.009,0,0,0-3.9,6.921c-.06.052-.127.092-.184.149L13,48V46A12,12,0,0,1,17.1,36.96Z" style="fill:#c78ff5"/><polygon points="28.293 15.293 27 16.586 25.707 15.293 24.293 16.707 25.586 18 24.293 19.293 25.707 20.707 27 19.414 28.293 20.707 29.707 19.293 28.414 18 29.707 16.707 28.293 15.293" style="fill:#00a0aa"/><polygon points="39.707 16.707 38.293 15.293 37 16.586 35.707 15.293 34.293 16.707 35.586 18 34.293 19.293 35.707 20.707 37 19.414 38.293 20.707 39.707 19.293 38.414 18 39.707 16.707" style="fill:#00a0aa"/><path d="M42.95,15.01a4.482,4.482,0,0,1,.05.64V21a10.985,10.985,0,0,1-8,10.58,10.924,10.924,0,0,1-6,0A10.981,10.981,0,0,1,21,21V15.89a3.572,3.572,0,0,1,.1-.87,4,4,0,0,1,3.72-3.13C29.26,11.67,36,11.01,36,9c0,0,0,1.99,3.77,2.73A4,4,0,0,1,42.95,15.01Z" style="fill:none;stroke:#000;stroke-linejoin:round;stroke-width:2px"/><path d="M43,21a2.992,2.992,0,0,0,2.07-5.16A2.942,2.942,0,0,0,43,15" style="fill:none;stroke:#000;stroke-linejoin:round;stroke-width:2px"/><path d="M21,21a2.992,2.992,0,0,1-2.07-5.16A2.942,2.942,0,0,1,21,15" style="fill:none;stroke:#000;stroke-linejoin:round;stroke-width:2px"/><path d="M19,16a1.024,1.024,0,0,1-.07-.16A15.48,15.48,0,0,1,18,10c0-4,0-9,9-9H37c9,0,9,5,9,9a15.48,15.48,0,0,1-.93,5.84A1.024,1.024,0,0,1,45,16" style="fill:none;stroke:#000;stroke-linejoin:round;stroke-width:2px"/><path d="M36,27a4,4,0,0,0-8,0Z" style="fill:none;stroke:#000;stroke-linejoin:round;stroke-width:2px"/><polyline points="29 16 27 18 25 20" style="fill:none;stroke:#000;stroke-linejoin:round;stroke-width:2px"/><polyline points="29 20 27 18 25 16" style="fill:none;stroke:#000;stroke-linejoin:round;stroke-width:2px"/><polyline points="39 16 37 18 35 20" style="fill:none;stroke:#000;stroke-linejoin:round;stroke-width:2px"/><polyline points="39 20 37 18 35 16" style="fill:none;stroke:#000;stroke-linejoin:round;stroke-width:2px"/><path d="M29,31v3a3,3,0,0,0,6,0V31" style="fill:none;stroke:#000;stroke-linejoin:round;stroke-width:2px"/><path d="M13,48V46a12,12,0,0,1,4.1-9.04" style="fill:none;stroke:#000;stroke-linejoin:round;stroke-width:2px"/><path d="M20.66,34.81A12,12,0,0,1,25,34h4" style="fill:none;stroke:#000;stroke-linejoin:round;stroke-width:2px"/><path d="M46.9,36.96A12,12,0,0,1,51,46v2" style="fill:none;stroke:#000;stroke-linejoin:round;stroke-width:2px"/><path d="M43.34,34.81A12,12,0,0,0,39,34H35" style="fill:none;stroke:#000;stroke-linejoin:round;stroke-width:2px"/><path d="M13.02,48.03a3.543,3.543,0,0,1,4.99,0l2.42,2.43a1.829,1.829,0,0,1,.26,2.33,1.922,1.922,0,0,1-.45.45,1.761,1.761,0,0,1-2.23-.22,1.775,1.775,0,0,1,0,2.49,1.768,1.768,0,0,1-2.5,0,1.764,1.764,0,1,1-2.49,2.5,1.756,1.756,0,0,1-.23,2.68,1.668,1.668,0,0,1-.79.3,1.92,1.92,0,0,1-1.54-.56L8.03,58.01a3.543,3.543,0,0,1,0-4.99Z" style="fill:none;stroke:#000;stroke-linejoin:round;stroke-width:2px"/><line style="fill:none;stroke:#000;stroke-linejoin:round;stroke-width:2px" x1="13.02" x2="10.53" y1="58.01" y2="55.51"/><line style="fill:none;stroke:#000;stroke-linejoin:round;stroke-width:2px" x1="15.51" x2="13.02" y1="55.51" y2="53.02"/><line style="fill:none;stroke:#000;stroke-linejoin:round;stroke-width:2px" x1="18.01" x2="15.51" y1="53.02" y2="50.53"/><polyline points="20 53 20.24 53.24 22 55 20 57 19 58 17.01 56.01 17 56" style="fill:none;stroke:#000;stroke-linejoin:round;stroke-width:2px"/><path d="M50.98,48.03a3.543,3.543,0,0,0-4.99,0l-2.42,2.43a1.829,1.829,0,0,0-.26,2.33,1.922,1.922,0,0,0,.45.45,1.761,1.761,0,0,0,2.23-.22,1.775,1.775,0,0,0,0,2.49,1.768,1.768,0,0,0,2.5,0,1.764,1.764,0,0,0,2.49,2.5,1.756,1.756,0,0,0,.23,2.68,1.668,1.668,0,0,0,.79.3,1.92,1.92,0,0,0,1.54-.56l2.43-2.42a3.543,3.543,0,0,0,0-4.99Z" style="fill:none;stroke:#000;stroke-linejoin:round;stroke-width:2px"/><line style="fill:none;stroke:#000;stroke-linejoin:round;stroke-width:2px" x1="50.98" x2="53.47" y1="58.01" y2="55.51"/><line style="fill:none;stroke:#000;stroke-linejoin:round;stroke-width:2px" x1="48.49" x2="50.98" y1="55.51" y2="53.02"/><line style="fill:none;stroke:#000;stroke-linejoin:round;stroke-width:2px" x1="45.99" x2="48.49" y1="53.02" y2="50.53"/><polyline points="44 53 43.76 53.24 42 55 44 57 45 58 46.99 56.01 47 56" style="fill:none;stroke:#000;stroke-linejoin:round;stroke-width:2px"/><polyline points="26 34 26 55 26 63" style="fill:none;stroke:#000;stroke-linejoin:round;stroke-width:2px"/><polyline points="38 34 38 47 38 63" style="fill:none;stroke:#000;stroke-linejoin:round;stroke-width:2px"/><line style="fill:none;stroke:#000;stroke-linejoin:round;stroke-width:2px" x1="20" x2="20" y1="45" y2="50"/><line style="fill:none;stroke:#000;stroke-linejoin:round;stroke-width:2px" x1="44" x2="44" y1="45" y2="50"/><line style="fill:none;stroke:#000;stroke-linejoin:round;stroke-width:2px" x1="20" x2="20" y1="57" y2="63"/><line style="fill:none;stroke:#000;stroke-linejoin:round;stroke-width:2px" x1="44" x2="44" y1="57" y2="63"/><line style="fill:none;stroke:#000;stroke-linejoin:round;stroke-width:2px" x1="19" x2="21" y1="42" y2="42"/><line style="fill:none;stroke:#000;stroke-linejoin:round;stroke-width:2px" x1="43" x2="45" y1="42" y2="42"/><path d="M29,42s0,5,9,5" style="fill:none;stroke:#000;stroke-linejoin:round;stroke-width:2px"/><path d="M34,51s-2,4-8,4" style="fill:none;stroke:#000;stroke-linejoin:round;stroke-width:2px"/><path d="M43.34,34.81l3.36-3.37a2.019,2.019,0,1,1,2.86,0,2.019,2.019,0,1,1,0,2.86L46.9,36.96A11.723,11.723,0,0,0,43.34,34.81Z" style="fill:none;stroke:#000;stroke-linejoin:round;stroke-width:2px"/><path d="M20.66,34.81a11.723,11.723,0,0,0-3.56,2.15L14.44,34.3a2.019,2.019,0,1,1,0-2.86,2.019,2.019,0,1,1,2.86,0Z" style="fill:none;stroke:#000;stroke-linejoin:round;stroke-width:2px"/><polyline points="12 61 12 63 20 63 26 63 38 63 44 63 52 63 52 61" style="fill:none;stroke:#000;stroke-linejoin:round;stroke-width:2px"/></g></svg>